<mxfile host="app.diagrams.net" modified="2024-04-05T13:11:38.820Z" agent="Mozilla/5.0 (X11; Linux x86_64) AppleWebKit/537.36 (KHTML, like Gecko) Chrome/122.0.0.0 Safari/537.36" etag="bpKAusdzmd5TyH-DntZf" version="23.1.2" type="device">
  <diagram id="C5RBs43oDa-KdzZeNtuy" name="Page-1">
    <mxGraphModel dx="1399" dy="814" grid="1" gridSize="10" guides="1" tooltips="1" connect="1" arrows="1" fold="1" page="1" pageScale="1" pageWidth="700" pageHeight="600" math="0" shadow="0">
      <root>
        <mxCell id="WIyWlLk6GJQsqaUBKTNV-0" />
        <mxCell id="WIyWlLk6GJQsqaUBKTNV-1" parent="WIyWlLk6GJQsqaUBKTNV-0" />
        <mxCell id="OUJFUzNw8pVZdD7VIjOi-0" value="Interpreter" style="swimlane;fontStyle=1;align=center;verticalAlign=top;childLayout=stackLayout;horizontal=1;startSize=26;horizontalStack=0;resizeParent=1;resizeParentMax=0;resizeLast=0;collapsible=1;marginBottom=0;whiteSpace=wrap;html=1;" vertex="1" parent="WIyWlLk6GJQsqaUBKTNV-1">
          <mxGeometry x="530" y="259" width="160" height="60" as="geometry" />
        </mxCell>
        <mxCell id="OUJFUzNw8pVZdD7VIjOi-2" value="" style="line;strokeWidth=1;fillColor=none;align=left;verticalAlign=middle;spacingTop=-1;spacingLeft=3;spacingRight=3;rotatable=0;labelPosition=right;points=[];portConstraint=eastwest;strokeColor=inherit;" vertex="1" parent="OUJFUzNw8pVZdD7VIjOi-0">
          <mxGeometry y="26" width="160" height="8" as="geometry" />
        </mxCell>
        <mxCell id="OUJFUzNw8pVZdD7VIjOi-3" value="+ execute(): int" style="text;strokeColor=none;fillColor=none;align=left;verticalAlign=top;spacingLeft=4;spacingRight=4;overflow=hidden;rotatable=0;points=[[0,0.5],[1,0.5]];portConstraint=eastwest;whiteSpace=wrap;html=1;" vertex="1" parent="OUJFUzNw8pVZdD7VIjOi-0">
          <mxGeometry y="34" width="160" height="26" as="geometry" />
        </mxCell>
        <mxCell id="OUJFUzNw8pVZdD7VIjOi-4" value="&amp;lt;&amp;lt;abstract class&amp;gt;&amp;gt;&lt;br&gt;&lt;b&gt;AbstractInterpreter&lt;/b&gt;" style="html=1;whiteSpace=wrap;" vertex="1" parent="WIyWlLk6GJQsqaUBKTNV-1">
          <mxGeometry x="540" y="99" width="140" height="50" as="geometry" />
        </mxCell>
        <mxCell id="OUJFUzNw8pVZdD7VIjOi-5" value="Frame" style="swimlane;fontStyle=1;align=center;verticalAlign=top;childLayout=stackLayout;horizontal=1;startSize=26;horizontalStack=0;resizeParent=1;resizeParentMax=0;resizeLast=0;collapsible=1;marginBottom=0;whiteSpace=wrap;html=1;" vertex="1" parent="WIyWlLk6GJQsqaUBKTNV-1">
          <mxGeometry x="10" y="19" width="180" height="164" as="geometry" />
        </mxCell>
        <mxCell id="OUJFUzNw8pVZdD7VIjOi-7" value="" style="line;strokeWidth=1;fillColor=none;align=left;verticalAlign=middle;spacingTop=-1;spacingLeft=3;spacingRight=3;rotatable=0;labelPosition=right;points=[];portConstraint=eastwest;strokeColor=inherit;" vertex="1" parent="OUJFUzNw8pVZdD7VIjOi-5">
          <mxGeometry y="26" width="180" height="8" as="geometry" />
        </mxCell>
        <mxCell id="OUJFUzNw8pVZdD7VIjOi-17" value="+ __construct()" style="text;strokeColor=none;fillColor=none;align=left;verticalAlign=top;spacingLeft=4;spacingRight=4;overflow=hidden;rotatable=0;points=[[0,0.5],[1,0.5]];portConstraint=eastwest;whiteSpace=wrap;html=1;" vertex="1" parent="OUJFUzNw8pVZdD7VIjOi-5">
          <mxGeometry y="34" width="180" height="26" as="geometry" />
        </mxCell>
        <mxCell id="OUJFUzNw8pVZdD7VIjOi-8" value="+ getVariable(name): Literal" style="text;strokeColor=none;fillColor=none;align=left;verticalAlign=top;spacingLeft=4;spacingRight=4;overflow=hidden;rotatable=0;points=[[0,0.5],[1,0.5]];portConstraint=eastwest;whiteSpace=wrap;html=1;" vertex="1" parent="OUJFUzNw8pVZdD7VIjOi-5">
          <mxGeometry y="60" width="180" height="26" as="geometry" />
        </mxCell>
        <mxCell id="OUJFUzNw8pVZdD7VIjOi-9" value="+ setVariable(name, value)" style="text;strokeColor=none;fillColor=none;align=left;verticalAlign=top;spacingLeft=4;spacingRight=4;overflow=hidden;rotatable=0;points=[[0,0.5],[1,0.5]];portConstraint=eastwest;whiteSpace=wrap;html=1;" vertex="1" parent="OUJFUzNw8pVZdD7VIjOi-5">
          <mxGeometry y="86" width="180" height="26" as="geometry" />
        </mxCell>
        <mxCell id="OUJFUzNw8pVZdD7VIjOi-10" value="+ declVariable(name)" style="text;strokeColor=none;fillColor=none;align=left;verticalAlign=top;spacingLeft=4;spacingRight=4;overflow=hidden;rotatable=0;points=[[0,0.5],[1,0.5]];portConstraint=eastwest;whiteSpace=wrap;html=1;" vertex="1" parent="OUJFUzNw8pVZdD7VIjOi-5">
          <mxGeometry y="112" width="180" height="26" as="geometry" />
        </mxCell>
        <mxCell id="OUJFUzNw8pVZdD7VIjOi-11" value="+ isDecl(name): bool" style="text;strokeColor=none;fillColor=none;align=left;verticalAlign=top;spacingLeft=4;spacingRight=4;overflow=hidden;rotatable=0;points=[[0,0.5],[1,0.5]];portConstraint=eastwest;whiteSpace=wrap;html=1;" vertex="1" parent="OUJFUzNw8pVZdD7VIjOi-5">
          <mxGeometry y="138" width="180" height="26" as="geometry" />
        </mxCell>
        <mxCell id="OUJFUzNw8pVZdD7VIjOi-12" value="Instruction" style="swimlane;fontStyle=1;align=center;verticalAlign=top;childLayout=stackLayout;horizontal=1;startSize=26;horizontalStack=0;resizeParent=1;resizeParentMax=0;resizeLast=0;collapsible=1;marginBottom=0;whiteSpace=wrap;html=1;" vertex="1" parent="WIyWlLk6GJQsqaUBKTNV-1">
          <mxGeometry x="250" y="469" width="250" height="112" as="geometry" />
        </mxCell>
        <mxCell id="OUJFUzNw8pVZdD7VIjOi-13" value="+ opcode: OpCode" style="text;strokeColor=none;fillColor=none;align=left;verticalAlign=top;spacingLeft=4;spacingRight=4;overflow=hidden;rotatable=0;points=[[0,0.5],[1,0.5]];portConstraint=eastwest;whiteSpace=wrap;html=1;" vertex="1" parent="OUJFUzNw8pVZdD7VIjOi-12">
          <mxGeometry y="26" width="250" height="26" as="geometry" />
        </mxCell>
        <mxCell id="OUJFUzNw8pVZdD7VIjOi-16" value="+ args: array&amp;lt;int, Literal|string|Variable&amp;gt;" style="text;strokeColor=none;fillColor=none;align=left;verticalAlign=top;spacingLeft=4;spacingRight=4;overflow=hidden;rotatable=0;points=[[0,0.5],[1,0.5]];portConstraint=eastwest;whiteSpace=wrap;html=1;" vertex="1" parent="OUJFUzNw8pVZdD7VIjOi-12">
          <mxGeometry y="52" width="250" height="26" as="geometry" />
        </mxCell>
        <mxCell id="OUJFUzNw8pVZdD7VIjOi-14" value="" style="line;strokeWidth=1;fillColor=none;align=left;verticalAlign=middle;spacingTop=-1;spacingLeft=3;spacingRight=3;rotatable=0;labelPosition=right;points=[];portConstraint=eastwest;strokeColor=inherit;" vertex="1" parent="OUJFUzNw8pVZdD7VIjOi-12">
          <mxGeometry y="78" width="250" height="8" as="geometry" />
        </mxCell>
        <mxCell id="OUJFUzNw8pVZdD7VIjOi-15" value="+ __construct(opcode, args)" style="text;strokeColor=none;fillColor=none;align=left;verticalAlign=top;spacingLeft=4;spacingRight=4;overflow=hidden;rotatable=0;points=[[0,0.5],[1,0.5]];portConstraint=eastwest;whiteSpace=wrap;html=1;" vertex="1" parent="OUJFUzNw8pVZdD7VIjOi-12">
          <mxGeometry y="86" width="250" height="26" as="geometry" />
        </mxCell>
        <mxCell id="OUJFUzNw8pVZdD7VIjOi-18" value="Memory" style="swimlane;fontStyle=1;align=center;verticalAlign=top;childLayout=stackLayout;horizontal=1;startSize=26;horizontalStack=0;resizeParent=1;resizeParentMax=0;resizeLast=0;collapsible=1;marginBottom=0;whiteSpace=wrap;html=1;" vertex="1" parent="WIyWlLk6GJQsqaUBKTNV-1">
          <mxGeometry x="270" y="79" width="160" height="268" as="geometry" />
        </mxCell>
        <mxCell id="OUJFUzNw8pVZdD7VIjOi-20" value="" style="line;strokeWidth=1;fillColor=none;align=left;verticalAlign=middle;spacingTop=-1;spacingLeft=3;spacingRight=3;rotatable=0;labelPosition=right;points=[];portConstraint=eastwest;strokeColor=inherit;" vertex="1" parent="OUJFUzNw8pVZdD7VIjOi-18">
          <mxGeometry y="26" width="160" height="8" as="geometry" />
        </mxCell>
        <mxCell id="OUJFUzNw8pVZdD7VIjOi-30" value="+ __construct()" style="text;strokeColor=none;fillColor=none;align=left;verticalAlign=top;spacingLeft=4;spacingRight=4;overflow=hidden;rotatable=0;points=[[0,0.5],[1,0.5]];portConstraint=eastwest;whiteSpace=wrap;html=1;" vertex="1" parent="OUJFUzNw8pVZdD7VIjOi-18">
          <mxGeometry y="34" width="160" height="26" as="geometry" />
        </mxCell>
        <mxCell id="OUJFUzNw8pVZdD7VIjOi-19" value="+ makeTmp()" style="text;strokeColor=none;fillColor=none;align=left;verticalAlign=top;spacingLeft=4;spacingRight=4;overflow=hidden;rotatable=0;points=[[0,0.5],[1,0.5]];portConstraint=eastwest;whiteSpace=wrap;html=1;" vertex="1" parent="OUJFUzNw8pVZdD7VIjOi-18">
          <mxGeometry y="60" width="160" height="26" as="geometry" />
        </mxCell>
        <mxCell id="OUJFUzNw8pVZdD7VIjOi-21" value="+ pushLocal()" style="text;strokeColor=none;fillColor=none;align=left;verticalAlign=top;spacingLeft=4;spacingRight=4;overflow=hidden;rotatable=0;points=[[0,0.5],[1,0.5]];portConstraint=eastwest;whiteSpace=wrap;html=1;" vertex="1" parent="OUJFUzNw8pVZdD7VIjOi-18">
          <mxGeometry y="86" width="160" height="26" as="geometry" />
        </mxCell>
        <mxCell id="OUJFUzNw8pVZdD7VIjOi-22" value="+ popVar(): Literal" style="text;strokeColor=none;fillColor=none;align=left;verticalAlign=top;spacingLeft=4;spacingRight=4;overflow=hidden;rotatable=0;points=[[0,0.5],[1,0.5]];portConstraint=eastwest;whiteSpace=wrap;html=1;" vertex="1" parent="OUJFUzNw8pVZdD7VIjOi-18">
          <mxGeometry y="112" width="160" height="26" as="geometry" />
        </mxCell>
        <mxCell id="OUJFUzNw8pVZdD7VIjOi-27" value="+ pushVar(value)" style="text;strokeColor=none;fillColor=none;align=left;verticalAlign=top;spacingLeft=4;spacingRight=4;overflow=hidden;rotatable=0;points=[[0,0.5],[1,0.5]];portConstraint=eastwest;whiteSpace=wrap;html=1;" vertex="1" parent="OUJFUzNw8pVZdD7VIjOi-18">
          <mxGeometry y="138" width="160" height="26" as="geometry" />
        </mxCell>
        <mxCell id="OUJFUzNw8pVZdD7VIjOi-28" value="+ getVar(name): Literal" style="text;strokeColor=none;fillColor=none;align=left;verticalAlign=top;spacingLeft=4;spacingRight=4;overflow=hidden;rotatable=0;points=[[0,0.5],[1,0.5]];portConstraint=eastwest;whiteSpace=wrap;html=1;" vertex="1" parent="OUJFUzNw8pVZdD7VIjOi-18">
          <mxGeometry y="164" width="160" height="26" as="geometry" />
        </mxCell>
        <mxCell id="OUJFUzNw8pVZdD7VIjOi-29" value="+ setVar(name, value)" style="text;strokeColor=none;fillColor=none;align=left;verticalAlign=top;spacingLeft=4;spacingRight=4;overflow=hidden;rotatable=0;points=[[0,0.5],[1,0.5]];portConstraint=eastwest;whiteSpace=wrap;html=1;" vertex="1" parent="OUJFUzNw8pVZdD7VIjOi-18">
          <mxGeometry y="190" width="160" height="26" as="geometry" />
        </mxCell>
        <mxCell id="OUJFUzNw8pVZdD7VIjOi-31" value="+ declVar(name)" style="text;strokeColor=none;fillColor=none;align=left;verticalAlign=top;spacingLeft=4;spacingRight=4;overflow=hidden;rotatable=0;points=[[0,0.5],[1,0.5]];portConstraint=eastwest;whiteSpace=wrap;html=1;" vertex="1" parent="OUJFUzNw8pVZdD7VIjOi-18">
          <mxGeometry y="216" width="160" height="26" as="geometry" />
        </mxCell>
        <mxCell id="OUJFUzNw8pVZdD7VIjOi-32" value="+ isDeclVar(name): bool" style="text;strokeColor=none;fillColor=none;align=left;verticalAlign=top;spacingLeft=4;spacingRight=4;overflow=hidden;rotatable=0;points=[[0,0.5],[1,0.5]];portConstraint=eastwest;whiteSpace=wrap;html=1;" vertex="1" parent="OUJFUzNw8pVZdD7VIjOi-18">
          <mxGeometry y="242" width="160" height="26" as="geometry" />
        </mxCell>
        <mxCell id="OUJFUzNw8pVZdD7VIjOi-33" value="" style="endArrow=block;dashed=1;endFill=0;endSize=12;html=1;rounded=0;" edge="1" parent="WIyWlLk6GJQsqaUBKTNV-1" source="OUJFUzNw8pVZdD7VIjOi-0" target="OUJFUzNw8pVZdD7VIjOi-4">
          <mxGeometry width="160" relative="1" as="geometry">
            <mxPoint x="500" y="239" as="sourcePoint" />
            <mxPoint x="660" y="239" as="targetPoint" />
          </mxGeometry>
        </mxCell>
        <mxCell id="OUJFUzNw8pVZdD7VIjOi-34" value="1" style="endArrow=open;html=1;endSize=12;startArrow=diamondThin;startSize=14;startFill=1;edgeStyle=orthogonalEdgeStyle;align=left;verticalAlign=bottom;rounded=0;" edge="1" parent="WIyWlLk6GJQsqaUBKTNV-1" source="OUJFUzNw8pVZdD7VIjOi-18" target="OUJFUzNw8pVZdD7VIjOi-0">
          <mxGeometry x="-1" y="3" relative="1" as="geometry">
            <mxPoint x="260" y="219" as="sourcePoint" />
            <mxPoint x="420" y="219" as="targetPoint" />
          </mxGeometry>
        </mxCell>
        <mxCell id="OUJFUzNw8pVZdD7VIjOi-35" value="" style="endArrow=diamondThin;endFill=0;endSize=24;html=1;rounded=0;" edge="1" parent="WIyWlLk6GJQsqaUBKTNV-1" source="OUJFUzNw8pVZdD7VIjOi-3" target="OUJFUzNw8pVZdD7VIjOi-12">
          <mxGeometry width="160" relative="1" as="geometry">
            <mxPoint x="260" y="459" as="sourcePoint" />
            <mxPoint x="420" y="459" as="targetPoint" />
            <Array as="points">
              <mxPoint x="610" y="525" />
            </Array>
          </mxGeometry>
        </mxCell>
        <mxCell id="OUJFUzNw8pVZdD7VIjOi-37" value="" style="endArrow=diamondThin;endFill=0;endSize=24;html=1;rounded=0;" edge="1" parent="WIyWlLk6GJQsqaUBKTNV-1" source="OUJFUzNw8pVZdD7VIjOi-18" target="OUJFUzNw8pVZdD7VIjOi-5">
          <mxGeometry width="160" relative="1" as="geometry">
            <mxPoint x="260" y="219" as="sourcePoint" />
            <mxPoint x="420" y="219" as="targetPoint" />
            <Array as="points">
              <mxPoint x="230" y="213" />
              <mxPoint x="230" y="101" />
            </Array>
          </mxGeometry>
        </mxCell>
      </root>
    </mxGraphModel>
  </diagram>
</mxfile>
